<svg xmlns="http://www.w3.org/2000/svg" width="200" height="200"><path d="M128.889 195.758c-3.007 0-5.837-1.17-7.963-3.299-83.227-82.772-83.542-83.426-83.944-84.256-1.624-3.354-1.42-13.289-.04-16.319.4-.88.814-1.788 83.992-84.352 2.118-2.119 4.948-3.291 7.956-3.291s5.837 1.172 7.963 3.301l24.021 24.02c4.39 4.393 4.39 11.538 0 15.929l-52.51 52.511 52.51 52.511c4.39 4.388 4.39 11.539 0 15.927l-24.021 24.02c-2.127 2.128-4.956 3.298-7.964 3.298" fill="#8dc0ce"/><path d="M128.894 8.241c1.86 0 3.718.708 5.135 2.128L158.05 34.39c2.837 2.836 2.837 7.436 0 10.271L102.713 100l55.338 55.338c2.837 2.838 2.837 7.436 0 10.273l-24.021 24.021c-1.417 1.417-3.275 2.128-5.135 2.128-1.857 0-3.717-.711-5.135-2.128 0 0-82.748-82.302-83.172-83.175-1.04-2.145-.979-10.771 0-12.918.512-1.119 83.172-83.171 83.172-83.171 1.417-1.419 3.274-2.127 5.134-2.127m0-7.999c-4.078 0-7.909 1.588-10.791 4.469 0 0-20.661 20.51-41.385 41.156C34.229 88.2 34.159 88.354 33.307 90.226c-1.854 4.071-2.13 15.159.08 19.72.84 1.732.856 1.764 43.295 44.09 20.745 20.688 41.435 41.268 41.435 41.268 2.869 2.867 6.7 4.456 10.778 4.456s7.912-1.589 10.793-4.473l24.021-24.017c2.882-2.886 4.469-6.719 4.469-10.795 0-4.077-1.587-7.91-4.469-10.794L114.025 100l49.683-49.681c5.948-5.952 5.948-15.635 0-21.587L139.687 4.71c-2.881-2.88-6.715-4.468-10.793-4.468" fill="#223948"/><path d="M98.875 99.5l55.338-55.338c2.836-2.836 2.836-7.435 0-10.273L130.195 9.87c-.165-.164-.351-.284-.525-.428-.751.35-1.463.809-2.083 1.429 0 0-82.66 82.048-83.171 83.17-.977 2.148-1.039 10.772 0 12.919.423.872 83.171 83.172 83.171 83.172.162.164.351.281.524.428.75-.352 1.464-.809 2.084-1.428l24.018-24.02c2.836-2.838 2.836-7.438 0-10.273L98.875 99.5z" fill="#cceffe"/></svg>