<svg xmlns="http://www.w3.org/2000/svg" width="200" height="200"><path d="M103.805 159.979l-44.676-18.756c-5.841-1.756-7.071-5.115-7.071-7.632v-73.23c0-4.67 3.459-6.325 7.019-7.609l44.729-18.778h.402c4.271 0 7.745 3.475 7.745 7.745v110.516c0 4.271-3.474 7.744-7.745 7.744h-.403z" fill="#cceffe"/><path d="M104.208 35.974a5.745 5.745 0 015.745 5.745v110.516a5.744 5.744 0 01-5.745 5.744l-44.405-18.643c-3.097-.911-5.745-2.572-5.745-5.745v-73.23c0-3.173 2.107-4.437 5.745-5.745l44.405-18.642m0-4h-.806l-.743.312-44.308 18.602c-2.759.993-8.293 3.06-8.293 9.474v73.229c0 2.604 1.097 7.281 8.392 9.515l44.21 18.562.742.312h.807c5.373 0 9.745-4.373 9.745-9.746V41.719c-.002-5.373-4.373-9.745-9.746-9.745z" fill="#223948"/><path d="M12.836 138.176a4.505 4.505 0 01-4.5-4.5V57.864c0-2.481 2.019-4.5 4.5-4.5h28.622c2.481 0 4.5 2.019 4.5 4.5v75.812c0 2.481-2.019 4.5-4.5 4.5H12.836z" fill="#cceffe"/><path d="M41.458 55.364a2.5 2.5 0 012.5 2.5v75.812a2.5 2.5 0 01-2.5 2.5H12.836a2.5 2.5 0 01-2.5-2.5V57.864a2.5 2.5 0 012.5-2.5h28.622m0-4H12.836a6.508 6.508 0 00-6.5 6.5v75.812c0 3.584 2.916 6.5 6.5 6.5h28.622c3.584 0 6.5-2.916 6.5-6.5V57.864c0-3.584-2.916-6.5-6.5-6.5z" fill="#223948"/><g><path d="M145.533 108.639a6.535 6.535 0 01-6.528-6.527V90.725a6.536 6.536 0 016.528-6.529h36.229c3.6 0 6.527 2.929 6.527 6.529v11.386c0 3.6-2.93 6.527-6.527 6.527h-36.229z" fill="#cceffe"/><path d="M181.762 86.195c2.5 0 4.527 2.028 4.527 4.529v11.385a4.528 4.528 0 01-4.527 4.529h-36.229a4.528 4.528 0 01-4.528-4.529V90.725a4.529 4.529 0 014.528-4.529l36.229-.001m0-4h-36.229c-4.703 0-8.528 3.826-8.528 8.529v11.385c0 4.703 3.826 8.529 8.528 8.529h36.229c4.702 0 8.527-3.826 8.527-8.529V90.725c0-4.704-3.826-8.53-8.527-8.53z" fill="#223948"/><path d="M166.65 167.652a6.522 6.522 0 01-3.262-.877l-31.373-18.112a6.485 6.485 0 01-3.043-3.964 6.486 6.486 0 01.652-4.954l5.693-9.86a6.549 6.549 0 015.658-3.265c1.141 0 2.269.303 3.26.876l31.375 18.111a6.541 6.541 0 012.39 8.92l-5.692 9.859a6.548 6.548 0 01-5.658 3.266z" fill="#cceffe"/><path d="M140.977 128.62a4.5 4.5 0 012.26.606l31.375 18.113a4.531 4.531 0 011.658 6.188l-5.693 9.859a4.529 4.529 0 01-6.186 1.659l-31.375-18.113a4.53 4.53 0 01-1.658-6.187l5.693-9.86a4.528 4.528 0 013.926-2.265m0-4a8.556 8.556 0 00-7.39 4.265l-5.692 9.86a8.477 8.477 0 00-.853 6.472 8.48 8.48 0 003.974 5.18l31.375 18.112a8.532 8.532 0 004.26 1.144 8.555 8.555 0 007.39-4.264l5.692-9.861c2.351-4.071.951-9.299-3.121-11.649l-31.375-18.112a8.505 8.505 0 00-4.26-1.147z" fill="#223948"/><g><path d="M140.979 65.218a6.552 6.552 0 01-5.658-3.266l-5.693-9.86a6.483 6.483 0 01-.652-4.954 6.488 6.488 0 013.043-3.964l31.373-18.114a6.53 6.53 0 013.26-.875 6.554 6.554 0 015.658 3.265l5.692 9.86a6.536 6.536 0 01-2.39 8.918l-31.375 18.115a6.534 6.534 0 01-3.258.875z" fill="#cceffe"/><path d="M166.65 26.185c1.564 0 3.086.812 3.926 2.265l5.693 9.86a4.53 4.53 0 01-1.658 6.187L143.236 62.61a4.53 4.53 0 01-6.186-1.659l-5.693-9.86a4.529 4.529 0 011.658-6.186l31.375-18.114a4.516 4.516 0 012.26-.606m0-4a8.532 8.532 0 00-4.26 1.144l-31.375 18.114a8.47 8.47 0 00-3.975 5.178 8.477 8.477 0 00.852 6.472l5.693 9.86a8.56 8.56 0 007.391 4.266 8.547 8.547 0 004.26-1.143l31.375-18.115c4.072-2.352 5.473-7.578 3.121-11.65l-5.692-9.86a8.553 8.553 0 00-7.39-4.266z" fill="#223948"/></g></g></svg>