<svg version="1.1" id="Layer_1" xmlns="http://www.w3.org/2000/svg" xmlns:xlink="http://www.w3.org/1999/xlink" x="0" y="0" width="200" height="200" xml:space="preserve"><style>.st8{fill:#223948}</style><image width="778" height="778" xlink:href="18ACAA70358F3E2D.png" transform="matrix(.24 0 0 .24 10.6533 10.6348)" overflow="visible" opacity=".33"/><path d="M100 187.196c-48.08 0-87.196-39.116-87.196-87.196S51.92 12.804 100 12.804 187.196 51.92 187.196 100 148.08 187.196 100 187.196z" fill="#cceffe"/><path class="st8" d="M100 15.804c46.426 0 84.196 37.771 84.196 84.196s-37.77 84.196-84.196 84.196S15.804 146.426 15.804 100 53.574 15.804 100 15.804m0-6C50.186 9.804 9.804 50.187 9.804 100c0 49.814 40.382 90.196 90.196 90.196s90.196-40.382 90.196-90.196c0-49.813-40.382-90.196-90.196-90.196z"/><g><path class="st8" d="M124.774 117.29c.316 2.524-.606 5.393-2.762 8.601-2.158 3.211-4.92 6.183-8.286 8.918-3.369 2.737-6.972 5.049-10.812 6.944-3.842 1.894-7.338 2.841-10.496 2.841-4.734 0-8.076-.947-10.021-2.841-1.946-1.896-3.235-4.893-3.867-8.997-.316-1.997-.498-4.655-.553-7.97-.052-3.314.106-6.891.474-10.731.37-3.84.974-7.759 1.815-11.759.841-3.998 1.973-7.654 3.393-10.969 1.42-3.314 3.129-6.102 5.13-8.365 1.998-2.262 4.365-3.603 7.102-4.023 2.735-.317 5.102-.211 7.102.314 1.998.528 3.366 1.317 4.104 2.368.734 1.053 1.208 2.052 1.421 2.998.103 2.001.024 3.814-.237 5.444-.264 1.633-.686 3.314-1.263 5.051-.58 1.736-1.238 3.605-1.973 5.604-.737 1.999-1.526 4.419-2.367 7.26-.737 2.422-1.526 5.235-2.367 8.443-.844 3.211-1.369 6.498-1.579 9.864.21 1.685 1.208 2.526 2.999 2.526 2.209 0 4.814-1.395 7.812-4.184 2.999-2.787 6.128-6.021 9.391-9.706.209-.315.525-.684.946-1.104.419-.419.735-.632.947-.632.841.106 1.657.553 2.446 1.343.791.788 1.289 1.71 1.501 2.762z"/><circle class="st8" cx="110.268" cy="59.448" r="12.265"/></g></svg>