<svg xmlns="http://www.w3.org/2000/svg" width="100" height="100"><path fill="#FFFFFE" d="M60.916 90.924c-1.008 0-1.917-.521-2.432-1.396L29.039 39.44c-.528-.901-.534-2.021-.016-2.926.518-.904 1.487-1.466 2.529-1.466h10.005L29.269 13.872c-.571-.984-.574-2.209-.005-3.196.568-.987 1.628-1.6 2.768-1.6h21.106c1.598 0 2.992 1.081 3.391 2.629l10.968 42.619c.208.814.032 1.658-.479 2.32-.515.66-1.289 1.041-2.125 1.041h-9.601l8.354 29.642c.242.86.076 1.761-.461 2.47-.535.705-1.382 1.127-2.269 1.127z"/><path fill="#223948" d="M53.139 11.576c.457 0 .854.31.969.752l10.969 42.619c.031.119-.061.236-.186.236h-12.9l9.248 32.82c.068.243-.125.42-.322.42-.104 0-.209-.049-.275-.164L31.194 38.173c-.163-.276.037-.625.357-.625h14.346L31.431 12.617c-.268-.462.065-1.042.6-1.042l21.108.001m0-5H32.031c-2.03 0-3.92 1.093-4.934 2.852-1.014 1.759-1.009 3.943.009 5.699l10.109 17.422h-5.664c-1.937 0-3.738 1.044-4.7 2.726-.962 1.681-.95 3.763.032 5.433l29.445 50.087c.954 1.622 2.711 2.63 4.587 2.63 1.664 0 3.257-.792 4.261-2.116 1.014-1.338 1.332-3.037.875-4.66l-7.458-26.463h6.298c1.615 0 3.11-.732 4.102-2.011.99-1.276 1.328-2.907.925-4.473L58.95 11.082c-.682-2.653-3.073-4.506-5.811-4.506z"/></svg>