<svg xmlns="http://www.w3.org/2000/svg" width="100" height="100"><path fill="#FFFFFE" d="M43.653 72.625c-.78 0-1.547-.266-2.162-.745l-1.026-.803.077-.733c-.25-.523-1.42-2.529-5.843-5.992-4.686-3.668-6.909-4.185-7.303-4.25l-.83.092-.805-.629c-.738-.578-1.207-1.41-1.32-2.34-.113-.931.143-1.85.722-2.588L63.046 6.251c.343-.438 1.679-1.867 4.472-1.867 2.898 0 6.404 1.595 10.42 4.739 3.84 3.006 6.194 5.902 7 8.607.691 2.323.123 4.19-.64 5.163L46.417 71.279c-.67.855-1.677 1.346-2.764 1.346z"/><path fill="#223948" d="M67.518 6.884c1.774 0 4.605.861 8.881 4.208 8.129 6.365 6.277 9.821 5.934 10.259L44.448 69.738c-.199.254-.496.387-.795.387-.218 0-.437-.07-.622-.214 0 0-.325-2.464-6.792-7.527-5.832-4.565-8.413-4.79-8.864-4.79-.049 0-.073.004-.073.004-.439-.345-.516-.979-.172-1.418L65.016 7.792c.161-.208.901-.908 2.502-.908m0-5c-2.646 0-5.055 1.057-6.439 2.826L23.194 53.098c-2.042 2.608-1.582 6.393 1.027 8.436l1.763 1.38 1.325-.246c.704.252 2.574 1.089 5.849 3.653 3.423 2.68 4.645 4.322 5.001 4.88l.183 1.389 1.608 1.259c1.052.824 2.368 1.277 3.704 1.277 1.86 0 3.585-.84 4.732-2.305L86.27 24.434c.557-.71 2.277-3.345 1.065-7.416-.969-3.258-3.539-6.484-7.854-9.863-4.53-3.547-8.443-5.271-11.963-5.271z"/><path fill="#FFFFFE" d="M21.022 85.714c-1.214 0-2.378-.583-3.114-1.562-.738-.979-.966-2.219-.626-3.405l6.557-22.865c.19-.663.917-2.206 3.555-2.206 2.498 0 6.758 1.363 10.646 4.407 4.664 3.651 7.322 7.606 7.109 10.58-.084 1.179-.654 2.155-1.564 2.678l-20.624 11.85c-.594.343-1.264.523-1.939.523z"/><path fill="#223948" d="M27.394 58.176c1.827 0 5.529 1.076 9.105 3.875 6.189 4.848 6.695 8.631 5.84 9.122L21.716 83.025c-.228.131-.464.189-.693.189-.86 0-1.609-.83-1.337-1.779l6.557-22.865c.072-.252.488-.394 1.151-.394m0-5c-3.543 0-5.401 2.075-5.958 4.018l-6.557 22.865c-.559 1.947-.182 3.988 1.032 5.601 1.206 1.601 3.117 2.557 5.111 2.557 1.111 0 2.212-.296 3.184-.854L44.83 75.511c1.643-.944 2.668-2.646 2.812-4.667.276-3.861-2.662-8.5-8.062-12.727-4.654-3.646-9.474-4.941-12.186-4.941z"/><g><path fill="none" stroke="#223948" stroke-width="3" stroke-miterlimit="10" d="M19.629 72.145s3.424.516 6.203 2.69 4.317 5.545 4.317 5.545"/></g></svg>