<svg xmlns="http://www.w3.org/2000/svg" id="svg38" version="1.1" width="121.23" height="144.15" viewBox="0 0 121.23 144.15"><defs id="defs12"><style id="style10">.cls-3{stroke:#231f20;stroke-miterlimit:10;stroke-width:2px;fill:#262626}.cls-5{fill:#fff}</style></defs><g data-name="Pirate Ship" id="Pirate_Ship"><path style="fill:#212121;fill-opacity:1;opacity:1" id="path14" fill="#231f20" stroke-miterlimit="10" stroke="#231f20" stroke-width="2" d="M119.55 90H94.48s.85 6.14-7 7.66V102s-9.19 5.65-27.75 1.21v4.46s34.21 6.9 48-2.53v-5.66s7.11-.85 11.82-9.48z"/><path id="path16" fill="#231f20" stroke-miterlimit="10" stroke="#231f20" stroke-width="2.03" d="M71.5 104.91V2.93A1.9 1.9 0 0173.37 1h0a1.9 1.9 0 011.87 1.92v101.92z"/><path style="fill:#424242;fill-opacity:1" id="path18" d="M33.54 36.33h80s-25.57 30-1 61.28h-79s-26.38-24.51 0-61.28zM54.81 5.81h34.8s-11.13 13-.46 26.66H54.81s-11.48-10.67 0-26.66z" class="cls-3"/><path style="fill:#424242;fill-opacity:1" id="path20" d="M2.9 71.06s24 30.39 56.85 29.58v7.06s33.19 7.41 48-2.53v-5.69s6.46-.23 11.8-9.53a.34.34 0 01.63.17v16.47s.17 18.59-11.07 21.83-45.87 17.4-78.46-7c0 0-10.79-14-15.15-27.92a99.08 99.08 0 00-6-8.87c-2.38-2.89-8-11.06-8-11.06s-1.83-2.85 1.4-2.51z" class="cls-3"/><path style="fill:#212121;fill-opacity:1;opacity:.8" id="path22" d="M27.16 87.06s55.91-.34 73.61-17.62c0 0 .68 16.17 10 27.23H34s-4.8-4.85-6.84-9.61zM51.67 26s21.44 2.21 31.74-6c0 0 .77 7.49 4.09 11.74H55.41s-2.3-1.54-3.74-5.74zm-29.86 79.27S45.2 127.57 79.07 123s40.48-15 40.48-15-1 15.44-8.82 18.9S82 134.12 82 134.12s-17.87 2.64-36-4.68a38.68 38.68 0 01-24.19-24.17z"/><path id="path24" d="M71.33 45.5s-1.47-1.5-6.77-1.66c0 0-7-.25-10.28 4.41s-4.34 12.06-4.34 12.06-1.85 5 3.13 3.64l.51 6.51s1.21 2.73 4 .57c0 0 1.21 2.1 3.77 0 0 0 1.91 2.94 4.08-.57l1.34-6.26s4.21 1.66 5.81.39 1.79-2.81 2.11-7.79.91-8.23-3.36-11.3zM53.07 58.14c-1.28-3.06.89-3.51.89-3.51s1.73-1.15 3.32 2.23c.9 2.43-1 3.26-1 3.26s-1.93 1.08-3.21-1.98zm6.64 7.1a2 2 0 01-1.36-.87 1.34 1.34 0 01-1.21.84c-.87 0-.77-1-.77-1.21a9.07 9.07 0 011-2.52c.56-.91 1-.82 1-.82a1.38 1.38 0 011.11.54 11.94 11.94 0 011.17 2.56c.02.39-.13 1.49-.94 1.48zm7.82-6c-2.7 3.13-4.53 1.1-4.53 1.1s-1.93-1.72.07-4.23c3.2-3.36 4.78-1.33 4.78-1.33s2.38 1.37-.32 4.48z" class="cls-5"/><path id="path26" d="M47.37 71.57s-1.79-2.47.38-3.54 4.17 1.91 4.13 3L71.71 81.1s4.77-.94 4.42 1.91-2.55 1.88-2.55 1.88 2.43 1.91.13 2.89S70 86 69.67 84.59l-20.06-9.92s-2.54 2.62-4.37.26c-2.13-2.75 2.13-3.36 2.13-3.36z" class="cls-5"/><path id="path28" d="M73.43 71.57s1.79-2.47-.38-3.54-4.17 1.91-4.13 3L49.09 81.1s-4.77-.94-4.43 1.91 2.56 1.88 2.56 1.88-2.43 1.91-.13 2.89 3.74-1.75 4-3.19l20.06-9.92s2.53 2.62 4.37.26c2.16-2.75-2.09-3.36-2.09-3.36z" class="cls-5"/><g id="waves"><path id="path30" fill="#7ed2ef" d="M37 125c-1-1.22-1.85-3.41-4.69-3.22-1.78.13-4.39 1.39-5.19 2.67s-.13 5.65.36 7a7.81 7.81 0 002.75 3.6c.8.6 3.69.84 4.65 1.27 3.11 1.37 6.91 2.78 9.89 1.55a3.36 3.36 0 011.1-.34 2.78 2.78 0 012 1.18c3.3 3.57 9.1 5.71 14.52 5.37 2.43-.16 4.74-.77 7.18-.94a68.88 68.88 0 018.7.39c2.9.17 6 0 8.32-1.12 1.08-.53 2-1.26 3.13-1.71a19.62 19.62 0 014.49-.85 25.34 25.34 0 008.51-2.69 3.39 3.39 0 001.38-1.09c.2-.34.25-.72.47-1a3.63 3.63 0 011.43-1 18.16 18.16 0 006.89-5.16c1.59-2.19 7-5.71 4.43-7.54-1.09-.79-4.59 1.17-5.3 1.38-8.48 2.57-17.28 7.51-27.49 8.48-3.19.3-6.44.37-9.68.39-8.79.08-18.31-.3-25.61-4.52a34.5 34.5 0 00-5.09-2.83c-1.88-.7-4.28-.82-5.67.23z"/><path id="path32" d="M37.91 125.3l.37-.12-.37.12zm54.21 6.63c4.16-.68 7.79-2.41 11.33-4.12l8.88-4.28c-.37-.43-1.2-.31-1.78-.11a115.87 115.87 0 00-12.5 4.58 24.35 24.35 0 01-11.59 2.67c-3.43 0-7.19.59-10.59.78-1.76.1-3.46.48-5.21.64-6.72.59-13.42-2.13-19.52-4.85-3.7-1.65-8-3.41-11.84-2.4l-1 .33a3.68 3.68 0 00-2.14 2.22 5.16 5.16 0 01-.41 1.26c-.2.3-.5.54-.69.83a2.7 2.7 0 00.84 3.71 12.16 12.16 0 004.5 1.81c1.34.2 2.9-.56 2.64-1.6-.14-.57.74-.84.51-1.4-.47-1.14.29-2 1.8-1.79a2.42 2.42 0 012.31 2.1c.27 1 .21 2.2 1.34 2.75a32.73 32.73 0 003.23 1.52c3.42.37 4.53-.36 7.92.23 1.08.19 3.8-1 4.88-.79 2.6.48 3.55-.67 6.17-.75 4.53-.12 9.17 1.68 13.6 1.12 2.13-.27 4-1.07 6.15-1.37 1.48-.21 3-.16 4.51-.33a14 14 0 006.87-2.58c.29-.22.59-.53.43-.84-.25-.46-1.11-.37-1.67-.18-3.76 1.27-7.85 1.9-11.74 2.86-.43.1-1.06-.1-1.13-.45 0-.2.12-.37.29-.5a8.34 8.34 0 013.61-1.07zm-55.23-7.06a21.39 21.39 0 00-2.49-1.93c-.65-.61-2.34-.52-3.27-.3a3.59 3.59 0 00-2.13 1.43 7.72 7.72 0 00-.94 2.12 2.61 2.61 0 000 2.17 3.31 3.31 0 00.81.87A4.22 4.22 0 0030 130a4.06 4.06 0 001.2.24 3.19 3.19 0 001.76-.27c.59-.34 1.51-.55 1.72-1.11.34-.92.17-2.2 1-2.92zm29.39 15.47a4.66 4.66 0 001.27-.76 9.09 9.09 0 013.71-1 40 40 0 016-.42 41.59 41.59 0 018.27 1.34 1.42 1.42 0 01.51.19.49.49 0 01-.09.81 2.51 2.51 0 01-1.09.27c-4.39.36-8.94.08-13.23.79a17.38 17.38 0 01-4.5.45 1.65 1.65 0 01-.92-.29c-.59-.49.08-1.21.76-1.55" style="fill:#a9e0f7"/><path id="path34" d="M56.54 131.32a2.94 2.94 0 00-1.38-.08l.45-.16a5 5 0 00-1.46.51 1.11 1.11 0 00-.65 1.09 1.6 1.6 0 001.1 1 6.07 6.07 0 001.71.29 4.75 4.75 0 001.51 0c.48-.12.88-.46.83-.86a1.14 1.14 0 00-.33-.59 3.91 3.91 0 00-1.78-1.2zm14.65 2.77c.32-.4-.3-.91-.89-1.09-2.48-.75-7.28.06-7.28.06a.45.45 0 00-.64.4c0 .27.34.48.64.64a7.64 7.64 0 003.7.78 21.87 21.87 0 003.73-.48 1.26 1.26 0 00.74-.31zm5.6 5.31a3 3 0 00-1.33-.2l-5.4.05.5-.13a4.14 4.14 0 00-1.91.55c-.24.15-.47.37-.44.62.06.47.89.6 1.49.59 2.27 0 4.54-.17 6.77-.41a1.28 1.28 0 00.61-.17c.31-.24.1-.71-.29-.9zM42.76 127c-1-.38-1.83-1.46-2.91-1.41a5.06 5.06 0 00-2.21.47l-.8.9a4.18 4.18 0 000 3.05 2 2 0 002 .9 1 1 0 00.71-.89 2.49 2.49 0 01.22-1.12c.51-.75 1.93-.64 3.06-.64a1.1 1.1 0 00.76-.2c.41-.38-.26-.87-.83-1.06zm-9.82-2.8a3.83 3.83 0 00-1.8-.2l-1 .49a4.31 4.31 0 00-1.29 2.38c-.11.51.48 1.15 1.08 1.21a1 1 0 00.9-.51 2.5 2.5 0 01.64-.81c.73-.46 2.28-2.33 1.47-2.56z" style="fill:#daf1fa"/></g></g></svg>