<svg xmlns="http://www.w3.org/2000/svg" width="400" height="400" viewBox="0 0 400 400 "><defs><style>.\33 57c001f-b3fa-487f-ad7f-2a8661cd54b1{fill:#185906;}.\34 e861359-2228-4504-9455-619e4b0dbe68{fill:#3aa025;}.\35 a6e1bc4-eca8-4c89-b2bc-088003a34aeb{fill:#1e5b0a;opacity:0.5;}.\34 7fbb683-c1c1-4a7e-aeaf-6a9cab1d9a78{fill:#c6cc6d;}.\38 c4c5067-95f4-4ed9-974e-95e66ddb0196{fill:#88b530;}.d545ae91-3903-4826-99db-47bb2ddf87da{fill:#f7fcb1;}.\33 2d696af-3da8-4ee4-89c8-2f8e0cdf7f18{fill:#4c250a;}.\34 555de06-0dc1-424f-8b8e-fbed73f29e37{fill:#281409;}.\35 f53df2c-a463-4c0f-8a9c-95060317b92c{fill:#7c3c11;}.\39 2e42583-ffd9-41db-b9b9-d51912a8723b{fill:#bc6022;}</style></defs><title>Avocado</title><g id="77bb5a34-229a-4d7b-a619-7b03639e638b" data-name="Avocado"><path class="357c001f-b3fa-487f-ad7f-2a8661cd54b1" d="M238.39,56a36.23,36.23,0,0,1,16.46,4.25,35.23,35.23,0,0,1,5.52,3.44,34.71,34.71,0,0,1,15.81,12.05c15.88,21.74,11.41,53.42,15.55,86.7,4.89,39.38,15.61,81.81-2.55,123.88-20.06,46.47-55.19,62.56-90.7,62.56-22.61,0-45.37-6.53-64.47-15.9l-3-1.52c-15.12-7.62-22.58-12.81-25.36-16.76-33-28.36-41.14-83.23-16.83-132,16.06-32.2,56.33-57.88,81.13-77.52C195.91,84.56,214.14,56,238.39,56m0-10c-20.78,0-36.44,15.34-53,31.58a280.71,280.71,0,0,1-21.66,19.78c-4.47,3.54-9.51,7.33-14.85,11.33C124.41,127,94,149.84,79.84,178.21,67.3,203.37,62.3,231.58,65.78,257.65c3.45,25.82,15,48.47,32.5,63.9,4.37,5.42,12.95,11.13,28.19,18.81l3.14,1.57c22.24,10.91,46.7,16.92,68.87,16.92,21.13,0,40.12-5.17,56.44-15.37,18.6-11.62,33.21-29.53,43.44-53.22,16.42-38.06,10.82-76.54,5.87-110.49-.94-6.43-1.82-12.5-2.58-18.58-1.15-9.29-1.62-18.62-2.07-27.63-1.18-23.6-2.29-45.89-15.33-63.73a44.61,44.61,0,0,0-19-15,45.9,45.9,0,0,0-5.89-3.54,46.45,46.45,0,0,0-21-5.32Z"/><path class="4e861359-2228-4504-9455-619e4b0dbe68" d="M289.19,286.28C256.37,362.35,183.11,357,134,332.95l-3-1.52c-52.29-26.35-13.08-23.71-5-40.82L232.9,65.28s3.65-9,25.56-2.3a34.6,34.6,0,0,1,17.73,12.73c15.88,21.74,11.41,53.42,15.55,86.7C296.63,201.79,307.35,244.21,289.19,286.28Z"/><path class="5a6e1bc4-eca8-4c89-b2bc-088003a34aeb" d="M203.24,297.5a134.85,134.85,0,0,1-71-20.05L126,290.61c-8.11,17.11-47.33,14.46,5,40.82l3,1.52c49.09,24.08,122.34,29.4,155.17-46.66a120.19,120.19,0,0,0,7.95-26.62A134.82,134.82,0,0,1,203.24,297.5Z"/><path class="47fbb683-c1c1-4a7e-aeaf-6a9cab1d9a78" d="M269.36,151c.83-32.42,16.21-75.29-14.5-90.79-33.31-16.8-53.41,20-84.94,44.94-24.8,19.65-65.07,45.32-81.13,77.52C60.95,238.51,75.6,302.34,121.52,325.24s105.72-3.8,133.56-59.64C270.79,234.11,268.61,180.31,269.36,151Z"/><path class="8c4c5067-95f4-4ed9-974e-95e66ddb0196" d="M238.39,63a29.28,29.28,0,0,1,13.31,3.5c8.53,4.31,13,11.19,14.62,22.32,1.54,10.87-.1,24.19-1.67,37.07-1,8.34-2.08,17-2.28,25-.11,4.41-.16,9.39-.21,14.66-.29,30.23-.69,71.63-13.33,97-9.66,19.38-23.68,35.67-40.53,47.1-16.26,11-34.06,16.86-51.49,16.86A71.39,71.39,0,0,1,124.65,319C82.26,297.83,69,238.09,95.05,185.8c12.36-24.78,41-46.28,64-63.56,5.43-4.07,10.55-7.92,15.2-11.61a293.67,293.67,0,0,0,23-21C211.9,75.34,224.55,63,238.39,63m0-7c-24.26,0-42.48,28.6-68.47,49.19-24.8,19.65-65.07,45.32-81.13,77.52C60.95,238.51,75.6,302.34,121.52,325.24a78.57,78.57,0,0,0,35.28,8.2c37.82,0,77.2-25.57,98.28-67.84,15.7-31.49,13.53-85.29,14.28-114.6.83-32.42,16.21-75.29-14.5-90.79A36.23,36.23,0,0,0,238.39,56Z"/><path class="357c001f-b3fa-487f-ad7f-2a8661cd54b1" d="M238.39,56a36.23,36.23,0,0,1,16.46,4.25c30.71,15.5,15.33,58.37,14.5,90.79-.75,29.31,1.42,83.11-14.28,114.6-21.08,42.27-60.46,67.84-98.28,67.84a78.57,78.57,0,0,1-35.28-8.2c-45.92-22.9-60.58-86.72-32.73-142.56,16.06-32.2,56.33-57.88,81.13-77.52C195.91,84.56,214.13,56,238.39,56m0-6c-19.15,0-34.25,14.78-50.23,30.44a283.72,283.72,0,0,1-22,20.05c-4.51,3.58-9.58,7.38-14.93,11.4-24.11,18.1-54.11,40.62-67.84,68.15-14.08,28.25-18.27,59.37-11.77,87.65,6.59,28.71,23.35,51.06,47.2,63a84.28,84.28,0,0,0,38,8.83c20,0,40.37-6.61,58.79-19.1,18.69-12.68,34.2-30.68,44.86-52.06,14-28,14.4-71.18,14.7-102.67,0-5.21.1-10.14.21-14.45.19-7.39,1.16-15.33,2.19-23.73,3.38-27.59,7.21-58.85-20-72.58A42.5,42.5,0,0,0,238.39,50Z"/><path class="d545ae91-3903-4826-99db-47bb2ddf87da" d="M251.72,154c.5-28.71,17.58-71.37-10.4-84.72C219.65,59,197.25,90.79,169.15,112.68c-22.1,17.21-58,39.65-72.2,68.05C72.39,230,77,293.63,118.4,314.26s98.83-9.57,123.39-58.81C255.64,227.67,251.27,180,251.72,154Z"/><ellipse class="47fbb683-c1c1-4a7e-aeaf-6a9cab1d9a78" cx="168.15" cy="224.42" rx="69.53" ry="53.65" transform="translate(-104.14 291.46) rotate(-66.99)"/><path class="32d696af-3da8-4ee4-89c8-2f8e0cdf7f18" d="M151.24,283.08a41.62,41.62,0,0,1-16.37-3.3c-12.75-5.42-22-16.82-26.1-32.13-4-15.12-2.5-32.27,4.3-48.29,11-26,33.8-43.45,56.64-43.45a41.62,41.62,0,0,1,16.37,3.3c26.14,11.1,35.92,47.18,21.8,80.42C196.85,265.61,174.08,283.08,151.24,283.08Z"/><path class="4555de06-0dc1-424f-8b8e-fbed73f29e37" d="M169.72,157.91A39.64,39.64,0,0,1,185.31,161c25.16,10.69,34.45,45.52,20.74,77.8-11,25.86-33.39,42.23-54.8,42.23a39.64,39.64,0,0,1-15.58-3.14c-25.16-10.69-34.45-45.52-20.74-77.8,11-25.86,33.39-42.23,54.8-42.23m0-4h0c-23.63,0-47.14,18-58.48,44.67-7,16.43-8.54,34-4.39,49.59,4.24,15.91,13.92,27.79,27.25,33.45a43.61,43.61,0,0,0,17.15,3.45c23.63,0,47.14-18,58.48-44.67,7-16.43,8.54-34,4.39-49.59-4.24-15.91-13.92-27.79-27.25-33.45a43.61,43.61,0,0,0-17.15-3.45Z"/><path class="5f53df2c-a463-4c0f-8a9c-95060317b92c" d="M189.32,233.66c-11,25.81-37.39,35.87-57.51,27.32s-28.73-30.42-10.49-67c12.52-25.1,38.07-41,58.2-32.5S200.28,207.85,189.32,233.66Z"/><path class="92e42583-ffd9-41db-b9b9-d51912a8723b" d="M160.13,203.67c-6.81,9.66-16.36,12.82-23.59,8.66s-10.43-13.3-1.36-27.13c6.22-9.49,18.07-14.74,25.3-10.57S166.68,194.39,160.13,203.67Z"/></g></svg>