<svg xmlns="http://www.w3.org/2000/svg" width="400" height="400"><g><path fill="#E6E7E8" stroke="#414042" stroke-width="15" stroke-miterlimit="10" d="M379.9 261c.5-2.8.8-6.4-1.1-10.5-.7-1.6-1.7-3.2-2.8-4.7-3.5-30.3-27.5-49.5-64.8-60.5a1754.9 1754.9 0 01-7.8-54.4 496.4 496.4 0 01-4.4-54.1c0-1-.2-1.7-.7-2.5.9-1 1.4-2 1.4-3 0-10-45.2-17-97.1-17-10.2 0-20.2.2-29.7.7-16.6.2-32.7 2.3-45 5.2-14.5 3-23.4 6.8-23.4 11.2 0 .8.4 1.7 1 2.5v.9a967.6 967.6 0 01-5 108C57.7 193 29 212 27 243.2c-1.8 1.4-3.1 2.9-4 4-3.5 4.3-4.4 10.8-1.6 17.2 0 .3.3.6.4 1v.1h0a156.7 156.7 0 0026.3 41c12.3 12.4 17.4 14.2 31 22.6 9.2 5.8 27.4 16.7 118.1 16.7s123.8-12.6 128.9-15.9c12.3-7.8 14.9-9.2 24.3-19.1 15.4-16.3 24.3-29 28-43h.2c.4-1.8 1-4.2 1.3-6.8z"/><path fill="#555" d="M202.4 327c-56 0-100.9-20.6-122.6-32.9a180 180 0 01-37.3-27c-8.3-8.2-13.1-15.6-13.1-20.4 0-24.4 16.7-43 49.8-55C108.6 181 150 175.5 202 175.5c108.7 0 166.5 23.9 171.6 71 0 1-.2 5.2-8.3 14.3-23 25.6-87.5 66.2-163 66.2z"/><path fill="#E6E7E8" d="M202 178c50.9 0 91 5.3 119.1 15.9a94 94 0 0135.2 21.3c8.6 9 13.5 19.3 14.8 31.5.1 1-1 5-7.7 12.4-4.9 5.5-23.7 24.5-61 42a239.3 239.3 0 01-100 23.4C147 324.5 102.5 304 81 292c-33.5-19-49.1-38.2-49.1-45.3 0-12 4-22.2 12.5-31.2 8-8.5 20-15.7 35.7-21.5 29.1-10.6 70.1-16 121.9-16m0-5c-96.2 0-175.1 19-175.1 73.7 0 22 79.2 82.8 175.5 82.8s175.6-66 173.7-83.3C370 191.7 298 173 202 173z"/><path fill="#414042" d="M202 173c96.2 0 168.2 18.7 174 73.2 2 17.4-77.4 83.3-173.6 83.3S26.9 268.6 26.9 246.7c0-54.7 78.9-73.7 175-73.7m0-5c-52.9 0-95 5.6-125.3 16.6a101.1 101.1 0 00-39.5 24.1 54 54 0 00-15.2 38c0 14 21.8 35.7 54.2 54a263 263 0 00126.3 33.8c77.8 0 144.6-42.1 168.4-68.7 7.4-8.2 10.8-15 10.2-20.2-3-27.7-22-48.3-56.4-61.1-29.3-11-70.5-16.5-122.6-16.5z"/><path fill="#808285" d="M81.3 309.4a7.2 7.2 0 01-7-9.2c1-3.4 2-6.9 2.8-10.3 1.3-5.4 2.7-11 4.6-16.6 2.6-7.5 5.2-15.1 7-22.8 1.4-6.1 2.5-12.5 3.4-18.6 7.2-45.3 11.7-110 10.9-157 0-2 .7-3.9 2-5.3a7.2 7.2 0 015.2-2.1l184.2 2.1c4 0 7.1 3.3 7.1 7.2.2 50.2 22 165 23.3 170.9l1.6 6a492 492 0 0110.3 47.7 7.2 7.2 0 01-7.1 8H81.3z"/><path fill="#414042" d="M110.2 70L294.4 72c2.5 0 4.6 2.1 4.6 4.7.2 50.7 22 165.5 23.4 171.5 1.7 6.9 10 37.8 11.9 53.4a4.7 4.7 0 01-4.7 5.2H81.3c-3.1 0-5.4-3-4.5-6 2.5-9 4.2-17.9 7.3-26.8 2.6-7.6 5.2-15.2 7-23 1.5-6.3 2.5-12.6 3.5-18.9a1010 1010 0 0010.9-157.4c0-2.7 2-4.8 4.7-4.8m0-5a9.6 9.6 0 00-9.7 9.9c.8 47-3.6 111.4-10.8 156.5-1 6.2-2 12.5-3.4 18.5-1.8 7.6-4.4 15.2-7 22.5-1.9 5.7-3.3 11.4-4.7 16.9L72 299.6a9.6 9.6 0 009.3 12.4h248.3a9.7 9.7 0 009.6-11 493.9 493.9 0 00-12-53.9c-1.3-5.8-23-120.3-23.2-170.3 0-5.3-4.3-9.6-9.6-9.7L110.3 65h-.1z"/><path fill="#939598" d="M164.6 316.5l-55-7.5s19-41.7 24-92 3.3-126.5 3.3-126.5l47.7 3.7s-1.6 90.9-3.4 127.6c-1.8 36.8-16.6 94.7-16.6 94.7z"/><path fill="#808285" d="M202.6 93c-24.9 0-50-2.1-69-5.9-21-4-31.6-9.4-31.6-15.7 0-2.4 0-9.5 31.7-14.8 18.5-3.1 43-4.9 68.9-4.9 25.8 0 50.1 1.8 68.4 4.9 31.2 5.3 31.2 12.4 31.2 14.8 0 6.3-10.5 11.6-31.1 15.7a372.2 372.2 0 01-68.5 5.9z"/><path fill="#414042" d="M202.6 54.2c52 0 97 7.1 97 17.2 0 10-45 19-97 19s-98-9-98-19 46-17.2 98-17.2m0-5c-26 0-50.6 1.8-69.4 5C110 58 99.5 63.3 99.5 71.3c0 5 3.5 12.3 33.6 18.2 19.2 3.7 44.5 5.9 69.5 5.9s50-2.2 69-6c9.4-1.8 16.9-4 22.2-6.4 2.7-1.2 10.9-4.8 10.9-11.7 0-8-10.3-13.4-33.3-17.3-18.4-3.1-42.9-4.9-68.8-4.9z"/><path fill="#555" d="M274.4 90.5l18.4-5.6c1.1-.8 6.2-3.2 6.2-3.2l-.2 13.7s14 115 24.6 165c-8.4 3.8-24.1 12.1-32.6 15.8-.1-36.3-2-135.7-22.8-184.9l6.4-.8zM105.7 82.1c1.3 52.4-6.6 122.4-14.8 173.4 8.4 3.7 5.9 2.8 14.3 6.6 2.3-16.5 19-120.2 10.4-175.7l-10-4.3z" opacity=".5"/><path fill="#939598" d="M255.2 70.4c0 16-43.6 19.2-79.9 19.2s-70.8-11.2-70.8-18.2S139 55 175.3 55s80 3.8 80 15.4z"/><path fill="#555" d="M308.9 321.7l-104 19-103.8-19v-30s55 19 103.9 19 103.9-19 103.9-19v30z"/><path fill="#BCBEC0" d="M201.7 317.3c-53.2 0-88.3-22-89.8-23l-.7-.4-18.5-48 5.2 1.8c.5.2 52.8 19 103.8 19 54 0 114.4-19.8 115-20l5.3-1.8-21.5 48.9-.8.4c-.4.2-44.9 23-98 23z"/><path fill="#414042" d="M317.5 249l-19 43s-43.7 22.8-96.8 22.8-88.4-22.6-88.4-22.6L97 250.1s52.5 19 104.6 19c55 0 115.8-20 115.8-20m9.1-8.3l-10.7 3.5c-.6.2-60.7 19.9-114.2 19.9a350.5 350.5 0 01-103-18.8l-10.3-3.8 4 10.3 16.2 42.1.6 1.5 1.4 1c1.5.9 37.1 23.3 91 23.3a236 236 0 0099.3-23.4l1.5-.8.7-1.6 19-43 4.5-10.2z"/><g><path fill="#E6E7E8" d="M228.8 291.7c-11 10.9-19 19.5-61 20.2-53 .8-50.5-17.7-50.5-17.7L101 252.1s59.3 17 100.6 17c29.7 0 37.5-3 37.5-3s-5.2 20.5-10.4 25.6z"/></g><g><path fill="#808285" d="M197.2 348.3c-92.1 0-110-11-119.5-17l-7.3-4.5c-8.8-5.2-14-8.4-24.1-18.6A149.8 149.8 0 0119 265.4a19 19 0 011.9-19.8c6-7.2 13.9-10.8 23.6-10.8 2.5 0 5.2.2 8 .8 46.6 8.8 78.5 24 106.8 50.5a307 307 0 0128.1 30.1c5.8 7 9.3 11.2 12.3 11.5 1.3 0 3.8-2.8 7.3-6.5 6-6.6 16-17.5 36-33.7 42.4-34.5 82.5-52 119-52.2 9.3 0 15.9 7.3 19 14.2 2.7 6 1.5 10.9.8 14.1l-.3 1.3c-3 15-11.3 28.4-29.4 47.6a87.6 87.6 0 01-22 17.8l-2.8 1.8c-.2.1-26.5 16.2-130.2 16.2z"/><path fill="#414042" d="M44.6 237.3c2.3 0 4.8.2 7.6.7 43 8.2 75.5 21.8 105.5 49.9 28.2 26.4 34.1 41.6 42 42.3h.2c5.2 0 9.8-12.4 44.7-40.7 27-21.9 70.8-51.5 117.6-51.7 8 0 13.9 6.8 16.6 12.7 2.7 6 1 10.7.3 14-3 15.2-12.1 28.7-28.7 46.3-9.4 10-12 11.3-24.3 19.2-5 3.2-38 15.8-128.9 15.8S88.3 334.9 79.1 329c-13.6-8.4-18.7-10.1-31-22.6a150 150 0 01-26.7-42c-2.8-6.5-2-13 1.5-17.3 3-3.5 9.4-10 21.7-10m0-5A32 32 0 0019 244.2a21.6 21.6 0 00-2.3 22.3c3.6 8.3 13.4 29.1 27.7 43.6 10.3 10.4 16 13.8 24.6 19 2.2 1.2 4.6 2.7 7.3 4.4 9.8 6 28 17.4 120.8 17.4 83.5 0 122.6-10.9 131.6-16.6l2.7-1.8c10-6.4 13.4-8.5 22.5-18.2 18.3-19.3 27-33.4 30-48.8l.3-1.2c.8-3.4 2-9-1-15.8-3.4-7.5-10.7-15.6-21-15.6h-.1c-37.2.2-77.8 18-120.7 52.8-20 16.2-30.2 27.3-36.3 33.9-2.2 2.4-4.5 4.9-5.5 5.6-2.1-.7-6-5.3-10.3-10.5a309.1 309.1 0 00-28.3-30.3c-28.6-27-61-42.2-108-51.2-3-.5-5.8-.8-8.5-.8z"/></g><g><path fill="#939598" d="M365.9 265.4c-10.3 15.5-37.5 35.5-46.8 41.2a219.7 219.7 0 01-67 26c-24.3 4.3-48.1-1-47.1-1.8 6.4-5.4 14.9-16.2 21.5-21.1 18-13.4 52.4-38.7 63.8-46.1 13.9-9 45-23 56.1-22.7 11.1.2 14.3 1 17.7 5.2 3.5 4.3 5.8 13.3 1.8 19.3z"/></g><g><path fill="#939598" d="M24.4 264.4c1.6 3.8 7.5 26 23.7 42 11 11.2 22.3 18.4 31 20.3 5.2 1.1 41.3 11.7 63.4 11.8 25 0 45.5-12.4 44.9-13.4a137.7 137.7 0 00-21.7-24.7A545 545 0 00113 258c-14-9-56.6-20.8-67.7-20.6S29.4 243 26 247.2c-3.4 4.3-4.3 10.8-1.5 17.2z"/></g><g><path fill="#E6E7E8" d="M378.6 267.8s0-.5.3-1.3l.6-3.8c.2-1.6.3-3.7 0-6 0-1.3-.3-2.5-.8-3.8-.4-1.3-1-2.6-1.8-4a14 14 0 00-2.8-3.7 13 13 0 00-4.4-2.6 40.4 40.4 0 00-25 0 257 257 0 00-54.4 22.1l-4 2.5-4 2.6a415.8 415.8 0 00-47.5 37.7L219.4 322c-2.6 2.5-5.2 5-8 7.4a76 76 0 01-6.8 5.2l-1.6.9a9 9 0 01-2 .6l-.7.1h-.3-1.5a8 8 0 01-.6-.1l-.6-.2-1-.3c-1.2-.6-2.1-1.2-3-1.8-1.7-1.3-3-2.7-4.4-4l-7.2-8.2c-4.6-5.4-9.3-10.7-14-15.7a241 241 0 00-54.6-43.4l-4-2.3-2-1.1-2-1a221.8 221.8 0 00-47-15.4 107 107 0 00-13.6-1.8 32.4 32.4 0 00-11.5 1.5 23.2 23.2 0 00-8.4 5.2l-.8.8-.2.2v.1l-.1.1-.4.5-1 1.7c-.7 1.1-1 2.4-1.3 3.5-.5 2.3-.4 4.4-.1 6 .2 1.7.6 3 .8 3.8l.5 1.2-.6-1.2c-.3-.8-.8-2-1.2-3.7-.3-1.6-.6-3.7-.3-6.2a13.8 13.8 0 012.1-6l.3-.4.1-.1.1-.2.2-.2.8-1a25 25 0 0114.6-8c2-.4 4.3-.5 6.5-.5 9 .2 18.8 1.8 29.3 4.5a226.3 226.3 0 0133.2 11.3l2.2 1 2 1 4.3 2.3a269 269 0 0125.1 15.8 239.5 239.5 0 0146.2 43.2c2.3 2.7 4.7 5.4 7 7.8 1.2 1.3 2.4 2.4 3.6 3.3l1.5.9.3.1h.2.4a1.9 1.9 0 01-.2 0l.5-.1.8-.5 2-1.2 3.9-3.3 7.9-7a393.4 393.4 0 0165-51.4c1.3-1 2.7-1.8 4-2.6a134 134 0 0112.8-6.8c11.2-5.3 22.2-9.4 32.5-12.7a159.1 159.1 0 0122.2-5.2 46.3 46.3 0 017-.2c2.3.1 4.4.4 6.4.9 2.1.4 4 1 5.9 1.7 1.8.8 3.5 1.9 4.7 3.2 1.3 1.4 2.2 2.9 3 4.3l1.5 4.3a25.8 25.8 0 01.1 10.2c-.3 1.6-.6 2.9-.9 3.7l-.3 1.3z"/></g></g></svg>