<svg xmlns="http://www.w3.org/2000/svg" viewBox="0 0 75 75" width="75" height="75"><defs><style>.cls-1{fill:#fff}.cls-2{fill:#223948}</style></defs><g id="Icons"><g id="User_loggedin" data-name="User loggedin"><path class="cls-1" d="M38 69c-11 0-16-1-17-5a42 42 0 010-5v-4c0-3 4-11 10-12h1v1a22 22 0 006 0 21 21 0 005 0v-1h1c6 1 10 9 10 12v4a44 44 0 010 5c-1 4-6 5-16 5z"/><path class="cls-2" d="M44 44c5 1 9 8 9 11v9c0 2-4 4-16 4s-15-2-15-4v-9c0-3 4-10 9-11l6 1 7-1m-12-2h-1c-6 1-11 9-11 13v4a41 41 0 000 6c1 4 6 5 17 5s17-1 18-5a43 43 0 000-6v-4c0-4-5-12-11-13h-1l-1 1a26 26 0 01-5 0 28 28 0 01-4 0l-1-1z"/><path class="cls-1" d="M37 45a22 22 0 01-3 0c-3 0-10-3-10-16 0-9 5-14 13-14s14 5 14 14c0 12-6 16-11 16a24 24 0 01-3 0z"/><path class="cls-2" d="M37 16c10 0 13 6 13 13 0 10-4 14-10 15a21 21 0 01-3 0 21 21 0 01-2 0c-5-1-10-5-10-15 0-7 3-13 12-13m0-2c-9 0-14 5-14 15 0 14 8 17 11 17a22 22 0 003 0 26 26 0 003 0c6-1 12-4 12-17 0-10-5-15-15-15z"/><ellipse class="cls-2" cx="37.5" cy="21.6" rx="22.2" ry="3.8"/><path class="cls-2" d="M24 19c0-9 6-16 13-16s13 7 13 16"/></g></g></svg>