<svg xmlns="http://www.w3.org/2000/svg" width="107.764" height="107.766"><path fill="#CCEFFE" d="M12.114 96.33a4.38 4.38 0 01-4.375-4.375V54.909h92.578v37.046a4.38 4.38 0 01-4.375 4.375H12.114z"/><path fill="#223948" d="M98.317 56.909v35.046a2.374 2.374 0 01-2.375 2.375H12.114a2.374 2.374 0 01-2.375-2.375V56.909h88.578m4-4H5.739v39.046a6.381 6.381 0 006.375 6.375h83.828a6.38 6.38 0 006.375-6.375V52.909z"/><path fill="#CCEFFE" d="M7.125 54.884a3.68 3.68 0 01-3.423-5.042l8.453-21.312a6.2 6.2 0 015.794-3.935h72.159a6.198 6.198 0 015.793 3.935l8.453 21.312a3.68 3.68 0 01-3.423 5.042H7.125z"/><path fill="#223948" d="M90.108 26.595a4.235 4.235 0 013.936 2.672l8.453 21.312a1.684 1.684 0 01-1.565 2.305H7.125a1.684 1.684 0 01-1.565-2.305l8.453-21.312a4.234 4.234 0 013.936-2.672h72.159m0-4h-72.16a8.19 8.19 0 00-7.653 5.196L1.842 49.104a5.673 5.673 0 00.582 5.289 5.677 5.677 0 004.702 2.489h93.806a5.682 5.682 0 005.284-7.778l-8.454-21.312a8.192 8.192 0 00-7.654-5.197z"/><path fill="#CCEFFE" d="M29.775 40.131a5.345 5.345 0 01-5.338-5.339V12.947a5.345 5.345 0 015.338-5.339h48.506a5.346 5.346 0 015.34 5.339v21.845a5.346 5.346 0 01-5.34 5.339H29.775z"/><path fill="#223948" d="M78.281 9.608a3.34 3.34 0 013.34 3.339v21.845a3.338 3.338 0 01-3.34 3.339H29.775a3.337 3.337 0 01-3.338-3.339V12.947a3.339 3.339 0 013.338-3.339h48.506m0-4H29.775c-4.046 0-7.338 3.293-7.338 7.339v21.845c0 4.047 3.292 7.339 7.338 7.339h48.506c4.047 0 7.34-3.292 7.34-7.339V12.947c-.001-4.046-3.293-7.339-7.34-7.339z"/><g><path fill="#223948" d="M63.087 98.122H44.969V75.807s1.895-5.204 9.059-5.204 9.06 5.204 9.06 5.204v22.315z"/></g><g><text transform="translate(46.227 33.146)" fill="#223948" font-family="'Gilroy-Bold'" font-size="28.421">$</text></g></svg>