<svg xmlns="http://www.w3.org/2000/svg" width="400" height="400"><path fill="#802311" stroke="#340900" stroke-width="7" stroke-miterlimit="10" d="M390.406 289.12c0 21.303-19.496 43.735-72.286 59.584-30.351 9.112-83.909 15.333-120.049 15.333-40.359 0-78.667-4.979-109.891-16.333-45.365-16.496-75.774-43.462-75.774-63.334 0-33.552 87.003-47.5 186-47.5 113.5 0 192 18.698 192 52.25z"/><path fill="#5B1809" d="M204.109 335.204c-59.294 0-102.408-12.298-122.831-19.628-33.417-11.995-48.375-25.195-48.375-32.955 0-16.549 64.104-39.632 168.5-39.632 105.138 0 172.231 23.473 172.231 39.632.005 18-71.586 52.583-169.525 52.583z"/><path fill="#340900" d="M201.406 245.488c45.775 0 89.443 4.669 122.963 13.146 36.918 9.338 46.77 19.471 46.77 23.985 0 5.591-12.225 18.356-45.9 30.608-19.988 7.273-62.305 19.475-121.127 19.475-58.917 0-101.717-12.206-121.986-19.481-34.277-12.304-46.719-25.042-46.719-30.602 0-4.562 9.465-14.747 44.939-23.994 32.499-8.471 75.493-13.137 121.06-13.137m0-5c-98.194 0-171.001 21.421-171.001 42.132s75.511 55.083 173.705 55.083c98.195 0 172.027-34.373 172.027-55.083s-76.535-42.132-174.731-42.132z"/><path fill="#802311" d="M330.039 272.078c0-12.268-10.381-50.874-12.237-58.678-1.477-6.211-24.59-111.141-23.342-159.106l-193.722-2.222c1.249 47.966-3.201 97.898-10.74 145.285-1.003 6.305-2.008 12.618-3.484 18.829-1.855 7.803-4.446 15.41-7.033 23.002-3.736 10.963-5.47 21.926-9.206 32.891h259.764v-.001z"/><path fill="#340900" d="M333.539 272.078c-.049-7.137-1.734-14.387-3.191-21.337-1.793-8.55-3.852-17.044-5.971-25.519-1.896-7.582-3.771-15.136-5.404-22.777-6.646-31.132-12.535-62.491-16.832-94.038-2.433-17.867-4.621-36.047-4.182-54.112.046-1.908-1.643-3.479-3.5-3.5-6.41-.074-12.818-.147-19.229-.221-15.397-.176-30.795-.353-46.192-.53-18.72-.215-37.438-.429-56.158-.644-16.108-.185-32.216-.37-48.324-.554-7.798-.09-15.691-.545-23.488-.27-.11.004-.221-.002-.331-.004-1.857-.021-3.547 1.621-3.5 3.5.727 28.811-.536 57.647-3.234 86.334-1.351 14.364-3.06 28.695-5.106 42.977-2.03 14.167-3.923 28.484-8.015 42.232-2.306 7.746-5.212 15.298-7.331 23.1-2.213 8.15-3.962 16.417-6.653 24.434-.731 2.179 1.204 4.43 3.375 4.43h227.784c10.482 0 21.049.39 31.525 0 .15-.005.304 0 .455 0 4.504 0 4.512-7 0-7H80.895c-3.314 0-6.867-.367-10.167 0-.148.018-.306 0-.455 0l3.375 4.431c2.38-7.093 4.035-14.379 5.908-21.614 1.871-7.227 4.379-14.22 6.652-21.321 4.401-13.75 6.638-27.864 8.751-42.111 4.282-28.876 7.347-57.949 8.708-87.114.759-16.247.979-32.516.569-48.775l-3.5 3.5c6.41.074 12.819.147 19.229.221 15.398.177 30.795.353 46.193.53 18.719.215 37.438.43 56.156.644 16.108.185 32.217.37 48.324.554 5.291.061 10.582.122 15.873.182 2.469.028 5.156.364 7.615.087.107-.012.223.003.331.004l-3.5-3.5c-.392 16.065 1.377 32.201 3.396 48.115 2.308 18.208 5.25 36.333 8.515 54.393 3.903 21.604 7.935 43.281 13.321 64.575 2.246 8.879 4.457 17.769 6.434 26.713 1.727 7.817 3.859 15.974 3.915 23.988.032 4.5 7.032 4.51 7.001-.003z"/><path fill="#AA3526" d="M159.984 281.621l-55.079-7.514s19.019-41.725 24.029-91.986c5.01-50.262 3.397-105.992 3.397-105.992l47.661 4.751s-1.625 69.309-3.408 106.096c-1.783 36.788-16.6 94.645-16.6 94.645z"/><path fill="#5B1809" d="M197.971 76.881c-48.236 0-97.066-8.332-97.066-24.257s48.831-24.257 97.066-24.257 97.067 8.332 97.067 24.257-48.831 24.257-97.067 24.257z"/><path fill="#340900" d="M197.971 31.366c51.952 0 94.067 9.518 94.067 21.257 0 11.74-42.115 21.257-94.067 21.257-51.952 0-94.066-9.517-94.066-21.257 0-11.739 42.115-21.257 94.066-21.257m0-6c-25.558 0-49.649 2.264-67.837 6.374-21.687 4.9-32.229 11.731-32.229 20.883s10.542 15.983 32.229 20.884c18.188 4.11 42.28 6.374 67.837 6.374 25.558 0 49.65-2.264 67.837-6.374 21.688-4.901 32.229-11.732 32.229-20.884S287.496 36.64 265.809 31.74c-18.188-4.11-42.28-6.374-67.838-6.374z"/><path fill="#D06039" d="M203.854 317.704c-88.431 0-127.065-33.979-133.913-40.791-1.214-1.207-1.666-2.979-1.18-4.628l13.673-46.238c.592-2.002 2.393-3.347 4.48-3.347.989 0 1.938.31 2.743.896 9.064 6.594 44.177 28.107 115.456 28.107 70.673 0 105.035-21.291 113.884-27.816.81-.598 1.765-.912 2.761-.912 2.25 0 4.182 1.605 4.594 3.818l8.647 46.423c.271 1.445-.14 2.899-1.125 3.986-6.135 6.766-41.228 40.502-130.02 40.502z"/><path fill="#301206" d="M86.913 225.201c.437 0 .881.132 1.273.418 9.189 6.686 44.799 28.585 116.928 28.585 71.147 0 105.881-21.31 115.366-28.306.396-.291.84-.424 1.277-.424.989 0 1.934.686 2.137 1.776l8.646 46.423c.125.667-.064 1.348-.521 1.852-5.209 5.744-39.726 39.679-128.168 39.679-87.92 0-126.003-33.95-132.148-40.063-.565-.562-.771-1.384-.545-2.147l13.672-46.236c.289-.976 1.169-1.557 2.083-1.557m0-5c-3.205 0-5.969 2.064-6.877 5.138l-13.672 46.236c-.748 2.528-.053 5.253 1.813 7.11 6.969 6.933 46.262 41.519 135.674 41.519 89.85 0 125.614-34.42 131.873-41.32 1.492-1.646 2.141-3.936 1.732-6.125l-8.646-46.423c-.634-3.396-3.599-5.861-7.053-5.861-1.535 0-3.002.484-4.244 1.4-8.693 6.411-42.49 27.329-112.399 27.329-70.525 0-105.077-21.147-113.986-27.629-1.236-.899-2.693-1.374-4.215-1.374z"/><path fill="#A8452A" d="M308.568 292.836c12.859-7.284 21.383-15.029 23.453-17.311.455-.504.646-1.184.521-1.851l-8.647-46.424c-.293-1.573-2.125-2.302-3.412-1.353-3.719 2.742-4.672 4.76-16.818 9.754 0 0 2.243 13.468 4.618 25.468s.285 31.717.285 31.717zM85.5 285.746c-13.253-7.213-11.393-8.213-13.797-10.605-.565-.562-.771-1.384-.545-2.147l13.672-46.236c.425-1.438 2.142-2.021 3.355-1.138 3.032 2.206 3.748 2.893 12.409 7.494 0 0-1.976 18.912-4.689 27.883-4.5 14.874-10.405 24.749-10.405 24.749z"/><path opacity=".4" fill="#340900" d="M168.367 250.282v69.424c0 2.989 5.412 5.413 5.412 5.413s8.63 4.251 34.712 4.251c26.081 0 36.713-4.251 36.713-4.251s5.413-2.423 5.413-5.413v-69.424c0-2.989-2.424-5.412-5.413-5.412 0 0-22.292 3.25-34.712 3.25-12.42 0-36.713-3.25-36.713-3.25-2.989 0-5.412 2.422-5.412 5.412zm65.17 57.983c0 .98-1.402 2.167-1.402 2.167s-1.975 2.84-23.644 2.858c-20.669.018-21.919-3.045-21.919-3.045s-1.125-1-1.125-1.979v-44.541c0-.979.795-1.774 1.775-1.774 0 0 13.021 1.171 24.601 1.171 11.579 0 21.5-4.5 21.5-4.5.979 0 .215 4.123.215 5.104l-.001 44.539z"/><path fill="#D06039" stroke="#301206" stroke-width="5" stroke-miterlimit="10" d="M162.7 244.783v69.424c0 2.989 5.413 5.413 5.413 5.413s8.63 4.251 34.712 4.251c26.081 0 36.713-4.251 36.713-4.251s5.412-2.423 5.412-5.413v-69.424c0-2.989-2.423-5.413-5.412-5.413 0 0-22.106 2-34.527 2s-36.898-2-36.898-2c-2.99.001-5.413 2.424-5.413 5.413zm65.17 57.983c0 .98-1.402 2.168-1.402 2.168s-1.975 2.84-23.644 2.857c-20.668.018-21.918-3.045-21.918-3.045s-1.125-1-1.125-1.979v-44.541c0-.98.794-1.774 1.774-1.774 0 0 11.877.67 23.457.67s21.084-.67 21.084-.67c.98 0 1.775.794 1.775 1.774l-.001 44.54h0z"/><path opacity=".4" fill="#340900" d="M230.072 303.787l.25-46.583s-.918-5.417-4.083-5.417c-2.5 0-6.917 1.087-22.414.583-19.157-.623-26.753-.917-26.753-.917-2.989 0-2.917 4.712-2.917 7.701 0 0-.833 43.132.25 45.465s1.917 3.333 4.833 4.583c2.917 1.25 12.975 3.653 23.167 3.333 10.584-.333 22.484-1.552 24.668-2.917 3.331-2.081 2.999-5.831 2.999-5.831zm8.832-62.416s2.584 69.167 0 71.75c-2.582 2.583-27.153 5.915-40.917 5.75-11.658-.14-27.341-4.177-32.125-5.484-.539-.146-.981.43-.709.917l2.958 5.316s8.63 4.251 34.712 4.251c26.08 0 36.713-4.251 36.713-4.251s5.412-2.423 5.412-5.413v-72.836h-6.044zm-11.034 61.395c0 .98-1.402 2.168-1.402 2.168s-1.975 2.84-23.644 2.857c-20.668.018-21.918-3.045-21.918-3.045s-1.125-1-1.125-1.979v-44.541c0-.98.794-1.774 1.774-1.774 0 0 11.692 2.25 23.271 2.25 11.578 0 21.27-2.25 21.27-2.25.98 0 1.775.794 1.775 1.774l-.001 44.54z"/><path fill="#AA3526" d="M93.933 325.066c11.667 3.75 16.411 5.257 28.271 7.542 1.133.218 3.486.801 3.672 3.176.286 3.645-1.654 4.832-3.154 5.145-3.625.755-19.852-4.606-30.979-8.312-.74-.246-3.657-1.136-4.208-1.688-1.019-1.02-1.306-2.637-.752-3.968 1.869-4.484 7.15-1.895 7.15-1.895z"/><path fill="#340900" d="M271.049 309.75c22.657-2.281 44.441-12.461 60.727-28.378 1.363-1.332 2.729-2.769 3.332-4.576.504-1.505.432-3.134.354-4.719-.185-3.767-3.623-18.03-3.807-21.796 8.585.73 50.464 19.785 42 17.5-8.285-2.238-5.983 4.586-4.681 5.293 4.305 2.338 3.27 1.6 5.691 5.857 1.148 2.019 1.857 4.432 1.249 6.672-1.006 3.707-5.048 5.576-8.666 6.863-16.606 5.912-33.888 9.729-51.229 12.883a710.8947 710.8947 0 01-62.121 8.49l17.151-4.089zM263.904 72.374c12.131-1.523 13.419-1.883 23.688-8.515 1.181-.762 2.538-1.592 3.896-1.232 1.826.483 2.441 8.047 2.742 9.913 8.191 51.025 16.383 102.051 24.576 153.077-8.457 3.742-24.156 12.013-32.613 15.755-.121-36.333-2.317-118.993-23.176-168.17l.887-.828zM109.54 63.868c-12.13-1.522-8.992-3.794-8.945-1.907 1.311 52.41-4.222 108.559-12.414 159.559 8.457 3.742 3.957 1.941 12.414 5.683 2.316-16.499 18.332-107.007 9.832-162.507l-.887-.828z" opacity=".4"/><g opacity=".57"><path fill="#F29E75" d="M179.28 243.495c8.616.616 13.007 1.077 21.511.657.812-.039 2.521-.034 3.045 1.562.805 2.448-.324 3.585-1.299 4.05-2.356 1.123-14.363.166-22.603-.512-.547-.045-2.694-.167-3.164-.452-.869-.528-1.25-1.997-1.092-3 .53-3.383 3.602-2.305 3.602-2.305z"/></g><g opacity=".57"><path fill="#F29E75" d="M148.822 249.221c-1.131 18.809-2.345 37.996-9.363 55.482-.342.854-.803 1.8-1.686 2.058-.494.146-1.142.658-1.646.548-9.129-1.982-29.023-9.606-28.921-10.014 4.599-18.456 8.524-37.872 10.312-56.809 0 0 7.891 2.828 15.72 4.967 7.829 2.14 15.595 3.59 15.584 3.768z"/></g><g opacity=".4"><path fill="#340900" d="M93.739 348.483c14.23 4.184 47.58 13.832 84.333 15.333 36.774 1.502 77.056-5.496 108.265-11.05 28.896-5.141 58.181-13.032 81.683-30.612 6.073-4.542 11.808-9.834 15.334-16.549 3.524-6.715 6.584-16.172 3.256-22.985-.323 11.293-7.455 23.469-15.834 31.048-8.985 8.129-26.789 17.281-38.196 21.368-35.173 12.603-76.231 18.227-115.729 19.446-34.923 1.076-60.905 2.397-94.795-6.092-23.345-5.848-49.304-13.052-67.314-22.354-23.122-11.942-35.333-25.584-35.333-25.584s26.33 33.919 74.33 48.031z"/></g><path fill="#802311" d="M250.617 50.371c0 18.747-43.583 21.333-79.919 21.333s-65.792-12.869-65.792-21.081 29.456-18.349 65.792-18.349 79.919 4.43 79.919 18.097z"/></svg>