<svg xmlns="http://www.w3.org/2000/svg" width="400" height="400"><path fill="#F3B64E" stroke="#332106" stroke-width="19" stroke-miterlimit="10" d="M306.702 249.734l-3.312-14.564c-.043-.182-.123-.337-.223-.477-1.062-7.426-1.793-15.496-1.793-23.687 0-30.371 4.747-137.461 4.747-137.461-.731-14.815-46.545-19.836-104.067-19.836-57.991 0-104.234 6.909-104.234 22.005 0 1.355.382 2.706 1.108 4.043 1.841 20.983 7.562 89.799 6.439 122.62-.377 11.022-1.58 21.229-3.111 30.202-.729.182-1.364.722-1.593 1.523l-3.968 13.93c-32.46 7.953-51.324 19.357-51.324 30.678 0 9.668-.132 29.333 36.667 47.667 30.154 15.023 64.333 30 119.333 30 52.667 0 83.961-9.425 113.333-23 39.667-18.333 42.667-40.903 42.667-51.167.002-11.226-18.344-23.582-50.669-32.476z"/><path fill="#E7930B" d="M357.373 282.21c0 10.263-2 30.833-42.667 51.167-28.94 14.47-69.888 23-113.333 23-45.966 0-90.118-13.223-119.333-30-33.667-19.333-36.667-37.999-36.667-47.667 0-20.526 62-41.333 154.667-41.333 96 0 157.333 24.307 157.333 44.833z"/><path fill="#F3B64E" d="M325.373 278.044c0 10.263-54.506 62.65-64.667 66.333-17.748 6.433-15.888 12-59.333 12-45.966 0-89.895-13.617-119.333-30-38.334-21.333-36.667-37.999-36.667-47.667 0-20.526 62-41.333 154.667-41.333 96 0 125.333 20.141 125.333 40.667z"/><path fill="#E7930B" d="M203.706 338.209c-37.435 0-74.138-7.082-103.349-19.94-27.02-11.895-43.151-26.993-43.151-40.392 0-22.117 74.233-35.333 146-35.333 38.185 0 74.843 4.106 103.228 11.565 16.348 4.295 43.772 13.518 43.772 27.018 0 10.348-16.937 24.532-43.146 36.135-17.671 7.824-54.598 20.947-103.354 20.947z"/><path fill="#332106" d="M203.206 245.044c80.91 0 144.5 18.595 144.5 36.083 0 17.489-63.09 54.582-144 54.582-80.909 0-144-33.332-144-57.832 0-17.488 62.591-32.833 143.5-32.833m0-5c-39.012 0-75.673 3.548-103.229 9.989-30.039 7.021-45.271 16.391-45.271 27.844 0 7.455 4.408 15.43 12.747 23.061 7.681 7.03 18.711 13.814 31.897 19.619 29.521 12.996 66.582 20.152 104.355 20.152 49.216 0 86.514-13.258 104.365-21.161 21.578-9.552 44.635-24.661 44.635-38.421 0-14.418-24.818-23.965-45.639-29.436-28.584-7.511-65.468-11.647-103.86-11.647z"/><path opacity=".7" fill="#996107" d="M347.706 281.127c0 4.613-3.991 9.139-7.708 12.75-4.122 4.004-7.844 6.987-15.75 11.375-24.371 13.524-68.701 18.458-120.542 18.458-80.909 0-84.259-27.282-108.333-45.753-13.876-10.646 26.924-32.914 107.833-32.914 80.91.001 144.5 18.596 144.5 36.084z"/><path fill="#996107" d="M311.376 270.162H92.369s11.667-28.785 13-67.785c1.334-39-6.996-128.832-6.996-128.832h207.75s-4.747 107.09-4.747 137.461 10 59.156 10 59.156z"/><path fill="#996107" d="M345.512 275.412c2.454 3.906 3.15 2.463 1.985 7.512-1.374 5.953-13.649 11.799-22.124 14.953-27.449 10.217-69.826 19.441-121.667 19.441-80.909 0-84.259-20.893-108.333-39.361-13.876-10.646 26.924-32.914 107.833-32.914 80.91.001 134.528 17.989 142.306 30.369z"/><path fill="#E7930B" d="M290.873 270.162H92.369s11.667-28.785 13-67.785c1.334-39-6.996-128.832-6.996-128.832l168.5 5.998s-10 145.834-1 174.834c9.002 29.006 25 15.785 25 15.785z"/><path fill="#F0A427" d="M153.25 274.206l-41.875-3.235s11.561-32.822 16.194-92.81c4.633-59.987-2.064-90.093-2.064-90.093l41.875 3.235s-.311 42.936-3.918 89.63c-3.607 46.696-10.212 93.273-10.212 93.273z"/><path fill="#F3B64E" d="M202.427 108.377c-59.334 0-107.605-14.652-107.605-32.663 0-21.756 67.186-25.005 107.233-25.005 31.649 0 56.644 1.507 74.287 4.479 22.07 3.718 32.799 9.841 32.799 18.718 0 8.993-11.434 17.606-32.195 24.253-20.58 6.59-47.046 10.218-74.519 10.218z"/><path fill="#332106" d="M202.055 53.709c57.989 0 104.086 5.102 104.086 20.197 0 15.095-45.724 31.471-103.714 31.471-57.989 0-104.605-14.567-104.605-29.663-.001-15.095 46.242-22.005 104.233-22.005m0-6c-30.509 0-56.442 1.884-74.995 5.449-23.712 4.557-35.238 11.935-35.238 22.556 0 10.501 12.059 19.579 34.872 26.251 20.751 6.069 47.646 9.412 75.733 9.412 27.777 0 54.566-3.68 75.433-10.36 15.64-5.007 34.281-13.775 34.281-27.11 0-14.099-20.146-19.124-35.3-21.676-17.81-3.001-42.971-4.522-74.786-4.522z"/><path fill="#F0A427" d="M201.98 320.649c-35.519 0-65.169-6.31-88.131-18.751-17.927-9.715-25.8-20.086-27.786-23.035a4.8306 4.8306 0 01-.639-4.034l11.874-41.685c.697-2.44 2.954-4.144 5.489-4.144 1.045 0 2.07.29 2.966.837 10.264 6.284 47.531 26.786 96.228 26.786 51.015 0 90.328-21.123 97.689-25.356.734-.422 1.566-.646 2.409-.646 2.274 0 4.218 1.551 4.724 3.772l9.364 41.187c.282 1.251.067 2.536-.604 3.623-1.801 2.916-9.027 13.183-26.389 22.825-22.247 12.356-51.583 18.621-87.194 18.621z"/><path fill="#996820" d="M102.788 232.5c.386 0 .778.104 1.14.323 9.811 6.006 48.111 27.3 98.054 27.3 51.646 0 91.235-21.107 99.435-25.823.213-.123.44-.179.664-.179.599 0 1.164.408 1.312 1.049l9.363 41.186c.078.347.018.705-.169 1.008-2.819 4.564-27.272 39.787-110.604 39.787-83.104 0-109.795-35.463-113.016-40.242-.222-.33-.285-.734-.176-1.117l11.875-41.688c.282-.995 1.181-1.604 2.122-1.604m-.001-7c-4.092 0-7.732 2.749-8.854 6.684l-11.876 41.689c-.676 2.371-.273 4.902 1.103 6.945 2.099 3.113 10.393 14.062 29.021 24.156 23.479 12.724 53.692 19.175 89.799 19.175 36.211 0 66.119-6.414 88.895-19.062 18.1-10.053 25.753-20.946 27.667-24.047 1.157-1.875 1.526-4.09 1.038-6.237l-9.364-41.186c-.87-3.825-4.216-6.497-8.136-6.497-1.454 0-2.891.384-4.153 1.11-7.228 4.158-45.821 24.893-95.944 24.893-47.778 0-84.333-20.107-94.398-26.27-1.448-.885-3.106-1.353-4.798-1.353z"/><path fill="#F5C472" d="M128.946 96.369l38.434-41.732 22.66-.927 22.676.06-10.289 51.608s-20.066.865-40.022-2.414c-19.958-3.279-33.459-6.595-33.459-6.595zM279.036 303.186s-24.958 11.799-77.056 13.964c-53.607 2.228-90.89-18.114-94.108-22.894-.222-.33 10.746-52.843 12.105-52.324 14.615 5.58 39.729 17.777 82.003 18.19 42.07.411 71.297-13.005 71.297-13.005l5.759 56.069z"/><path fill="#FFD693" d="M164.12 314.644l-15.736-3.073-9.006-2.861 5.944-57.505 11.997 3.527 13.512 2.679z"/><g><path fill="#F0A427" d="M111.026 305.246c-.568 0-1.132-.096-1.675-.282l-.335-.116-16.576-11.681c-1.944-.845-3.211-2.787-3.33-4.954l-7.643-6.615c-2.146-.935-3.404-3.293-3.034-5.74-.144-1.963-.396-10.58 4.341-26.287 4.342-14.401 7.799-19.391 9.242-20.975.797-1.726 2.733-2.834 5.082-2.834.6 0 1.171.077 1.699.229l.146.042 7.714 3.298c.831-.358 1.785-.552 2.776-.552.774 0 1.536.121 2.203.352l16.099 5.727c2.779.959 4.321 4.072 3.489 7.078l-.039.142-.055.135c-.059.144-5.924 14.59-10.566 30.45-4.555 15.561-4.27 27.605-4.266 27.725l.011.377-.101.363c-.669 2.424-2.801 4.118-5.182 4.118z"/><path fill="#996820" d="M97.099 228.262c.358 0 .703.045 1.004.133l8.74 3.736c.643-.582 1.643-.85 2.591-.85.497 0 .979.074 1.389.215l16.076 5.718c1.533.529 2.392 2.345 1.918 4.056 0 0-5.915 14.514-10.65 30.691s-4.365 28.5-4.365 28.5c-.386 1.393-1.534 2.286-2.774 2.286-.284 0-.573-.047-.859-.146l-16.53-11.648c-1.463-.505-2.298-2.184-1.959-3.823l-8.914-7.716c-1.349-.391-2.159-1.93-1.81-3.436 0 0-1.018-8.334 4.214-25.685 5.226-17.333 9.005-20.319 9.005-20.319.27-1.171 1.677-1.712 2.924-1.712m0-5c-3.206 0-5.899 1.525-7.18 3.934-1.968 2.3-5.406 7.949-9.538 21.656-4.671 15.49-4.628 24.267-4.459 26.938-.377 3.318 1.31 6.486 4.17 7.925l6.661 5.767c.484 2.539 2.102 4.748 4.436 5.863l16.099 11.344.579.408.669.231c.807.278 1.645.419 2.491.419 3.5 0 6.622-2.447 7.593-5.951l.202-.729-.022-.756c-.003-.108-.263-11.816 4.166-26.945 4.604-15.727 10.423-30.066 10.481-30.209l.11-.271.078-.28c1.185-4.276-1.058-8.722-5.104-10.119l-16.032-5.702c-.971-.335-2.015-.505-3.064-.505-.938 0-1.845.127-2.693.369l-6.672-2.853-.281-.12-.294-.085c-.756-.218-1.561-.329-2.396-.329z"/></g><path fill="#F5C472" d="M110.822 231.496c2.826 1.005 11.376 4.045 11.376 4.045 1.532.529.898 3.125.425 4.836 0 0-3.765 9.966-8.5 26.145-4.735 16.178-5.579 21.569-5.579 21.569-.475 1.711-2.102 2.669-3.634 2.14 0 0-7.708-2.668-10.734-7.307-1.697-2.601.197-10.63.197-10.63l12.47-40.164s1.153-1.64 3.979-.634zM98.103 228.395c-.221-.064-.441-.11-.663-.137-1.133-.132-2.263.284-3.267 1.717 0 0-4.074 2.899-9.005 20.319-2 7.065-2.857 11.296-2.857 11.296-.351 1.506 5.535 5.038 7.312 5.038s12.506-36.513 12.506-36.513"/></svg>