<svg xmlns="http://www.w3.org/2000/svg" width="100" height="100"><path fill="#FFFFFE" d="M25.701 65.711c-6.158 0-11.168-5.01-11.168-11.168V16.359c0-6.158 5.01-11.167 11.168-11.167H76.65c6.158 0 11.168 5.01 11.168 11.167v38.184c0 6.158-5.01 11.168-11.168 11.168H25.701z"/><path fill="#223948" d="M76.65 7.692c4.787 0 8.668 3.881 8.668 8.668v38.183c0 4.787-3.881 8.668-8.668 8.668H25.701c-4.787 0-8.668-3.881-8.668-8.668V16.36c0-4.787 3.881-8.668 8.668-8.668H76.65m0-5H25.701c-7.537 0-13.668 6.131-13.668 13.668v38.183c0 7.537 6.131 13.668 13.668 13.668H76.65c7.537 0 13.668-6.131 13.668-13.668V16.36c0-7.537-6.13-13.668-13.668-13.668z"/><path fill="#FFFFFE" d="M26.537 58.427c-3.337 0-6.051-2.714-6.051-6.051v-33.85c0-3.337 2.714-6.051 6.051-6.051h48.727c3.338 0 6.051 2.714 6.051 6.051v33.85c0 3.337-2.713 6.051-6.051 6.051H26.537z"/><path fill="#223948" d="M75.264 13.976c2.514 0 4.551 2.038 4.551 4.551v33.85c0 2.514-2.037 4.551-4.551 4.551H26.537c-2.514 0-4.552-2.037-4.552-4.551v-33.85c0-2.513 2.038-4.551 4.552-4.551h48.727m0-3H26.537c-4.164 0-7.552 3.387-7.552 7.551v33.85c0 4.164 3.388 7.551 7.552 7.551h48.727c4.163 0 7.551-3.387 7.551-7.551v-33.85c-.001-4.164-3.388-7.551-7.551-7.551z"/><path fill="#FFFFFE" d="M33.964 33.898c-3.888 0-7.052-3.164-7.052-7.052 0-3.888 3.164-7.052 7.052-7.052 3.888 0 7.052 3.164 7.052 7.052 0 3.888-3.164 7.052-7.052 7.052z"/><path fill="#223948" d="M33.964 21.294c3.066 0 5.552 2.486 5.552 5.552 0 3.066-2.485 5.552-5.552 5.552s-5.552-2.485-5.552-5.552c0-3.066 2.485-5.552 5.552-5.552m0-3c-4.716 0-8.552 3.836-8.552 8.552 0 4.716 3.836 8.552 8.552 8.552 4.716 0 8.552-3.836 8.552-8.552 0-4.716-3.836-8.552-8.552-8.552z"/><path fill="#FFFFFE" d="M66.997 33.898c-3.89 0-7.052-3.164-7.052-7.052 0-3.888 3.162-7.052 7.052-7.052 3.888 0 7.052 3.164 7.052 7.052 0 3.888-3.164 7.052-7.052 7.052z"/><path fill="#223948" d="M66.996 21.294c3.066 0 5.552 2.486 5.552 5.552 0 3.066-2.485 5.552-5.552 5.552-3.064 0-5.551-2.485-5.551-5.552 0-3.066 2.487-5.552 5.551-5.552m0-3c-4.715 0-8.551 3.836-8.551 8.552 0 4.716 3.836 8.552 8.551 8.552 4.716 0 8.552-3.836 8.552-8.552 0-4.716-3.836-8.552-8.552-8.552z"/><g fill="#223948"><path d="M37.155 51.718c-2.546 0-4.191-1.674-4.191-4.264 0-2.591 1.646-4.265 4.191-4.265h1v8.529h-1z"/><path d="M37.155 44.189v6.529c-2.214 0-3.191-1.469-3.191-3.265s.977-3.264 3.191-3.264m2-2h-2c-3.105 0-5.191 2.116-5.191 5.265 0 3.149 2.086 5.265 5.191 5.265h2v-10.53zM63.568 51.718v-8.529h1c2.545 0 4.189 1.674 4.189 4.265 0 2.59-1.645 4.264-4.189 4.264h-1z"/><path d="M64.566 44.189c2.215 0 3.191 1.469 3.191 3.265s-.979 3.265-3.191 3.265v-6.53m0-2h-2v10.529h2c3.105 0 5.191-2.116 5.191-5.265.001-3.149-2.084-5.264-5.191-5.264z"/><g><path d="M42.09 43.189h7.311v8.529H42.09z"/><path d="M48.4 44.189v6.529h-5.31v-6.529h5.31m2-2H41.09v10.529H50.4V42.189z"/></g><g><path d="M53.177 43.189h7.312v8.529h-7.312z"/><path d="M59.486 44.189v6.529h-5.311v-6.529h5.311m2-2h-9.311v10.529h9.311V42.189z"/></g></g><path fill="#FFFFFE" d="M13.224 96.511c-1.463 0-2.824-.657-3.734-1.801-.91-1.144-1.244-2.619-.915-4.044l5.64-20.803c.479-2.086 2.393-3.606 4.627-3.606h64.672c2.234 0 4.146 1.521 4.649 3.699l5.594 20.618c.353 1.517.019 2.99-.892 4.136s-2.272 1.802-3.735 1.802l-75.906-.001z"/><path fill="#223948" d="M83.512 68.757c1.059 0 1.977.729 2.215 1.761l5.616 20.711c.328 1.424-.753 2.782-2.214 2.782H13.224c-1.461 0-2.542-1.358-2.214-2.782l5.617-20.711c.237-1.031 1.155-1.761 2.214-1.761h64.671m0-5H18.841c-3.366 0-6.251 2.263-7.058 5.519L6.185 89.919l-.025.091-.021.092c-.502 2.172.006 4.418 1.394 6.164 1.388 1.744 3.462 2.744 5.691 2.744h75.905c2.229 0 4.305-1 5.691-2.744 1.387-1.746 1.896-3.992 1.394-6.164l-.021-.092-.025-.091-5.6-20.644c-.804-3.254-3.691-5.518-7.056-5.518z"/><g><path fill="#FFFFFE" d="M19.182 88.579c-.55 0-1.058-.25-1.393-.685-.336-.437-.447-.99-.307-1.521l2.89-11.762c.208-.787.906-1.325 1.703-1.325h58.202c.797 0 1.494.538 1.699 1.31l2.897 11.795c.136.514.024 1.067-.312 1.504-.334.436-.842.686-1.393.686l-63.986-.002z"/><path fill="#223948" d="M80.277 74.286c.344 0 .645.231.731.563l2.894 11.779c.127.48-.234.951-.73.951H19.181c-.497 0-.859-.471-.731-.951l2.894-11.779a.7575.7575 0 01.732-.563h58.201m0-2H22.075c-1.25 0-2.347.844-2.666 2.053l-2.902 11.813c-.212.8-.037 1.668.489 2.353.526.683 1.322 1.075 2.185 1.075h63.991c.862 0 1.658-.393 2.186-1.075.524-.685.701-1.553.479-2.387l-2.885-11.745c-.329-1.243-1.425-2.087-2.675-2.087z"/></g><g><path fill="#FFFFFE" d="M46.36 87.955l.965-14.669h8.62l.966 14.669z"/><path fill="#223948" d="M55.01 74.286l.833 12.669h-8.415l.833-12.669h6.749m1.873-2H46.389l-.123 1.868-.834 12.67-.14 2.131H57.981l-.142-2.131-.833-12.67-.123-1.868z"/></g><g><path fill="#FFFFFE" d="M26.873 87.955l2.895-14.669h8.711l-1.93 14.669z"/><path fill="#223948" d="M37.338 74.286l-1.666 12.669H28.09l2.5-12.669h6.748m2.281-2H28.945l-.318 1.612-2.499 12.67-.472 2.387h11.77l.229-1.739 1.667-12.669.297-2.261z"/></g><g><path fill="#FFFFFE" d="M66.589 87.955l-1.93-14.669h8.711l2.896 14.669z"/><path fill="#223948" d="M72.548 74.286l2.5 12.669h-7.582L65.8 74.286h6.748m1.643-2H63.52l.297 2.261 1.668 12.669.229 1.739h11.77l-.471-2.387-2.5-12.67-.322-1.612z"/></g><g><path fill="#FFFFFE" d="M27.273 87.955c-.518 0-1.001-.23-1.325-.635a1.6945 1.6945 0 01-.336-1.432l.525-2.39c.173-.787.856-1.336 1.661-1.336h46.755c.793 0 1.491.562 1.661 1.336l.524 2.392c.111.504-.01 1.026-.334 1.43-.324.404-.809.636-1.326.636l-47.805-.001z"/><path fill="#223948" d="M74.555 83.163c.328 0 .613.229.684.55l.525 2.391c.096.438-.236.853-.685.853H27.273c-.448 0-.781-.414-.685-.853l.525-2.391c.07-.32.355-.55.685-.55h46.757m0-2H27.799c-1.259 0-2.368.892-2.639 2.121l-.524 2.391c-.177.804.018 1.632.533 2.272s1.282 1.009 2.104 1.009h47.806c.821 0 1.589-.368 2.104-1.009s.709-1.469.532-2.272l-.524-2.391c-.269-1.229-1.379-2.121-2.636-2.121z"/></g></svg>