<svg xmlns="http://www.w3.org/2000/svg" width="100" height="100"><path fill="#BCBEC0" d="M8.8 73.919V26.082L50.228 2.164l41.428 23.918v47.837L50.228 97.837z"/><path fill="#808285" d="M50.228 3.896l39.928 23.053v46.104L50.228 96.105 10.3 73.053V26.948L50.228 3.896m0-3.464L7.3 25.216v49.569l42.928 24.783 42.928-24.783V25.216L50.228.432z"/><radialGradient id="a" cx="146.228" cy="-180" r="42.794" gradientTransform="matrix(1 0 0 -1 -96 -130)" gradientUnits="userSpaceOnUse"><stop offset=".389" stop-color="#fff"/><stop offset=".916" stop-color="#fff" stop-opacity=".138"/><stop offset="1" stop-color="#fff" stop-opacity="0"/></radialGradient><path fill="url(#a)" d="M89.848 72.874V27.126L50.228 4.252 10.609 27.126v45.748l39.619 22.874z"/><path fill="#BCBEC0" stroke="#FFF" stroke-miterlimit="10" d="M64.759 58.057l-.299-.222c-1.454.88-3.14 1.415-4.963 1.415a9.645 9.645 0 01-9.645-9.645 9.645 9.645 0 019.645-9.645c2.101 0 4.022.696 5.601 1.842l7.016-6.765c-4.469-6.062-11.606-9.753-19.275-9.753-13.141 0-23.954 10.812-23.954 23.953s10.813 23.955 23.954 23.955a23.964 23.964 0 0017.872-8.021l-5.952-7.114z"/></svg>